<svg width="77" height="78" viewBox="0 0 77 78" fill="none" xmlns="http://www.w3.org/2000/svg">
<g id="Group 256">
<g id="Group 252">
<g id="Subtract">
<mask id="path-1-inside-1_2_1043" fill="white">
<path fill-rule="evenodd" clip-rule="evenodd" d="M38.2869 77.4244C38.2872 77.4244 38.2875 77.4244 38.2878 77.4244C59.6681 77.4244 77.0001 60.0923 77.0001 38.7121C77.0001 17.3318 59.6681 -0.000244141 38.2878 -0.000244141C38.2875 -0.000244141 38.2872 -0.000244137 38.2869 -0.000244128V77.4244Z"/>
</mask>
<path d="M38.2869 77.4244H37.2869V78.4244H38.2869V77.4244ZM38.2869 -0.000244128L38.2868 -1.00024L37.2869 -1.00022V-0.000244128H38.2869ZM38.2878 76.4244C38.2878 76.4244 38.2878 76.4244 38.2878 76.4244C38.2878 76.4244 38.2878 76.4244 38.2878 76.4244C38.2878 76.4244 38.2878 76.4244 38.2878 76.4244C38.2878 76.4244 38.2878 76.4244 38.2878 76.4244C38.2878 76.4244 38.2878 76.4244 38.2878 76.4244C38.2878 76.4244 38.2878 76.4244 38.2878 76.4244C38.2878 76.4244 38.2878 76.4244 38.2878 76.4244C38.2878 76.4244 38.2878 76.4244 38.2878 76.4244C38.2878 76.4244 38.2878 76.4244 38.2878 76.4244C38.2878 76.4244 38.2878 76.4244 38.2878 76.4244C38.2878 76.4244 38.2878 76.4244 38.2878 76.4244C38.2878 76.4244 38.2878 76.4244 38.2878 76.4244C38.2878 76.4244 38.2878 76.4244 38.2878 76.4244C38.2878 76.4244 38.2878 76.4244 38.2878 76.4244C38.2878 76.4244 38.2878 76.4244 38.2878 76.4244C38.2878 76.4244 38.2878 76.4244 38.2878 76.4244C38.2878 76.4244 38.2878 76.4244 38.2878 76.4244C38.2878 76.4244 38.2878 76.4244 38.2878 76.4244C38.2878 76.4244 38.2878 76.4244 38.2878 76.4244C38.2878 76.4244 38.2878 76.4244 38.2878 76.4244C38.2878 76.4244 38.2878 76.4244 38.2878 76.4244C38.2878 76.4244 38.2878 76.4244 38.2878 76.4244C38.2878 76.4244 38.2878 76.4244 38.2878 76.4244C38.2878 76.4244 38.2878 76.4244 38.2878 76.4244C38.2878 76.4244 38.2878 76.4244 38.2878 76.4244C38.2878 76.4244 38.2878 76.4244 38.2878 76.4244C38.2878 76.4244 38.2878 76.4244 38.2878 76.4244C38.2878 76.4244 38.2878 76.4244 38.2878 76.4244C38.2878 76.4244 38.2878 76.4244 38.2878 76.4244C38.2878 76.4244 38.2878 76.4244 38.2878 76.4244C38.2878 76.4244 38.2878 76.4244 38.2878 76.4244C38.2878 76.4244 38.2878 76.4244 38.2878 76.4244C38.2878 76.4244 38.2878 76.4244 38.2878 76.4244C38.2878 76.4244 38.2878 76.4244 38.2878 76.4244C38.2878 76.4244 38.2878 76.4244 38.2878 76.4244C38.2878 76.4244 38.2878 76.4244 38.2878 76.4244C38.2878 76.4244 38.2878 76.4244 38.2878 76.4244C38.2878 76.4244 38.2878 76.4244 38.2878 76.4244C38.2878 76.4244 38.2878 76.4244 38.2878 76.4244C38.2878 76.4244 38.2878 76.4244 38.2878 76.4244C38.2878 76.4244 38.2878 76.4244 38.2878 76.4244C38.2878 76.4244 38.2878 76.4244 38.2878 76.4244C38.2878 76.4244 38.2878 76.4244 38.2878 76.4244C38.2878 76.4244 38.2878 76.4244 38.2878 76.4244C38.2878 76.4244 38.2878 76.4244 38.2878 76.4244C38.2878 76.4244 38.2878 76.4244 38.2878 76.4244C38.2878 76.4244 38.2878 76.4244 38.2878 76.4244C38.2878 76.4244 38.2878 76.4244 38.2878 76.4244C38.2878 76.4244 38.2878 76.4244 38.2878 76.4244C38.2878 76.4244 38.2878 76.4244 38.2877 76.4244C38.2877 76.4244 38.2877 76.4244 38.2877 76.4244C38.2877 76.4244 38.2877 76.4244 38.2877 76.4244C38.2877 76.4244 38.2877 76.4244 38.2877 76.4244C38.2877 76.4244 38.2877 76.4244 38.2877 76.4244C38.2877 76.4244 38.2877 76.4244 38.2877 76.4244C38.2877 76.4244 38.2877 76.4244 38.2877 76.4244C38.2877 76.4244 38.2877 76.4244 38.2877 76.4244C38.2877 76.4244 38.2877 76.4244 38.2877 76.4244C38.2877 76.4244 38.2877 76.4244 38.2877 76.4244C38.2877 76.4244 38.2877 76.4244 38.2877 76.4244C38.2877 76.4244 38.2877 76.4244 38.2877 76.4244C38.2877 76.4244 38.2877 76.4244 38.2877 76.4244C38.2877 76.4244 38.2877 76.4244 38.2877 76.4244C38.2877 76.4244 38.2877 76.4244 38.2877 76.4244C38.2877 76.4244 38.2877 76.4244 38.2877 76.4244C38.2877 76.4244 38.2877 76.4244 38.2877 76.4244C38.2877 76.4244 38.2877 76.4244 38.2877 76.4244C38.2877 76.4244 38.2877 76.4244 38.2877 76.4244C38.2877 76.4244 38.2877 76.4244 38.2877 76.4244C38.2877 76.4244 38.2877 76.4244 38.2877 76.4244C38.2877 76.4244 38.2877 76.4244 38.2877 76.4244C38.2877 76.4244 38.2877 76.4244 38.2877 76.4244C38.2877 76.4244 38.2877 76.4244 38.2877 76.4244C38.2877 76.4244 38.2877 76.4244 38.2877 76.4244C38.2877 76.4244 38.2877 76.4244 38.2877 76.4244C38.2877 76.4244 38.2877 76.4244 38.2877 76.4244C38.2877 76.4244 38.2877 76.4244 38.2877 76.4244C38.2877 76.4244 38.2877 76.4244 38.2877 76.4244C38.2877 76.4244 38.2877 76.4244 38.2877 76.4244C38.2877 76.4244 38.2877 76.4244 38.2877 76.4244C38.2877 76.4244 38.2877 76.4244 38.2877 76.4244C38.2877 76.4244 38.2877 76.4244 38.2877 76.4244C38.2877 76.4244 38.2877 76.4244 38.2877 76.4244C38.2877 76.4244 38.2877 76.4244 38.2877 76.4244C38.2877 76.4244 38.2877 76.4244 38.2877 76.4244C38.2877 76.4244 38.2877 76.4244 38.2877 76.4244C38.2877 76.4244 38.2877 76.4244 38.2877 76.4244C38.2877 76.4244 38.2877 76.4244 38.2877 76.4244C38.2877 76.4244 38.2877 76.4244 38.2877 76.4244C38.2877 76.4244 38.2877 76.4244 38.2877 76.4244C38.2877 76.4244 38.2877 76.4244 38.2877 76.4244C38.2877 76.4244 38.2877 76.4244 38.2877 76.4244C38.2877 76.4244 38.2877 76.4244 38.2877 76.4244C38.2877 76.4244 38.2877 76.4244 38.2877 76.4244C38.2877 76.4244 38.2877 76.4244 38.2877 76.4244C38.2877 76.4244 38.2877 76.4244 38.2877 76.4244C38.2877 76.4244 38.2877 76.4244 38.2877 76.4244C38.2877 76.4244 38.2877 76.4244 38.2877 76.4244C38.2877 76.4244 38.2877 76.4244 38.2877 76.4244C38.2877 76.4244 38.2877 76.4244 38.2877 76.4244C38.2877 76.4244 38.2877 76.4244 38.2877 76.4244C38.2877 76.4244 38.2877 76.4244 38.2877 76.4244C38.2876 76.4244 38.2876 76.4244 38.2876 76.4244C38.2876 76.4244 38.2876 76.4244 38.2876 76.4244C38.2876 76.4244 38.2876 76.4244 38.2876 76.4244C38.2876 76.4244 38.2876 76.4244 38.2876 76.4244C38.2876 76.4244 38.2876 76.4244 38.2876 76.4244C38.2876 76.4244 38.2876 76.4244 38.2876 76.4244C38.2876 76.4244 38.2876 76.4244 38.2876 76.4244C38.2876 76.4244 38.2876 76.4244 38.2876 76.4244C38.2876 76.4244 38.2876 76.4244 38.2876 76.4244C38.2876 76.4244 38.2876 76.4244 38.2876 76.4244C38.2876 76.4244 38.2876 76.4244 38.2876 76.4244C38.2876 76.4244 38.2876 76.4244 38.2876 76.4244C38.2876 76.4244 38.2876 76.4244 38.2876 76.4244C38.2876 76.4244 38.2876 76.4244 38.2876 76.4244C38.2876 76.4244 38.2876 76.4244 38.2876 76.4244C38.2876 76.4244 38.2876 76.4244 38.2876 76.4244C38.2876 76.4244 38.2876 76.4244 38.2876 76.4244C38.2876 76.4244 38.2876 76.4244 38.2876 76.4244C38.2876 76.4244 38.2876 76.4244 38.2876 76.4244C38.2876 76.4244 38.2876 76.4244 38.2876 76.4244C38.2876 76.4244 38.2876 76.4244 38.2876 76.4244C38.2876 76.4244 38.2876 76.4244 38.2876 76.4244C38.2876 76.4244 38.2876 76.4244 38.2876 76.4244C38.2876 76.4244 38.2876 76.4244 38.2876 76.4244C38.2876 76.4244 38.2876 76.4244 38.2876 76.4244C38.2876 76.4244 38.2876 76.4244 38.2876 76.4244C38.2876 76.4244 38.2876 76.4244 38.2876 76.4244C38.2876 76.4244 38.2876 76.4244 38.2876 76.4244C38.2876 76.4244 38.2876 76.4244 38.2876 76.4244C38.2876 76.4244 38.2876 76.4244 38.2876 76.4244C38.2876 76.4244 38.2876 76.4244 38.2876 76.4244C38.2876 76.4244 38.2876 76.4244 38.2876 76.4244C38.2876 76.4244 38.2876 76.4244 38.2876 76.4244C38.2876 76.4244 38.2876 76.4244 38.2876 76.4244C38.2876 76.4244 38.2876 76.4244 38.2876 76.4244C38.2876 76.4244 38.2876 76.4244 38.2876 76.4244C38.2876 76.4244 38.2876 76.4244 38.2876 76.4244C38.2876 76.4244 38.2876 76.4244 38.2876 76.4244C38.2876 76.4244 38.2876 76.4244 38.2876 76.4244C38.2876 76.4244 38.2876 76.4244 38.2876 76.4244C38.2876 76.4244 38.2876 76.4244 38.2876 76.4244C38.2876 76.4244 38.2876 76.4244 38.2876 76.4244C38.2876 76.4244 38.2876 76.4244 38.2876 76.4244C38.2876 76.4244 38.2876 76.4244 38.2876 76.4244C38.2876 76.4244 38.2876 76.4244 38.2876 76.4244C38.2876 76.4244 38.2876 76.4244 38.2876 76.4244C38.2876 76.4244 38.2876 76.4244 38.2876 76.4244C38.2876 76.4244 38.2876 76.4244 38.2876 76.4244C38.2876 76.4244 38.2876 76.4244 38.2876 76.4244C38.2876 76.4244 38.2876 76.4244 38.2876 76.4244C38.2876 76.4244 38.2876 76.4244 38.2876 76.4244C38.2876 76.4244 38.2876 76.4244 38.2876 76.4244C38.2876 76.4244 38.2875 76.4244 38.2875 76.4244C38.2875 76.4244 38.2875 76.4244 38.2875 76.4244C38.2875 76.4244 38.2875 76.4244 38.2875 76.4244C38.2875 76.4244 38.2875 76.4244 38.2875 76.4244C38.2875 76.4244 38.2875 76.4244 38.2875 76.4244C38.2875 76.4244 38.2875 76.4244 38.2875 76.4244C38.2875 76.4244 38.2875 76.4244 38.2875 76.4244C38.2875 76.4244 38.2875 76.4244 38.2875 76.4244C38.2875 76.4244 38.2875 76.4244 38.2875 76.4244C38.2875 76.4244 38.2875 76.4244 38.2875 76.4244C38.2875 76.4244 38.2875 76.4244 38.2875 76.4244C38.2875 76.4244 38.2875 76.4244 38.2875 76.4244C38.2875 76.4244 38.2875 76.4244 38.2875 76.4244C38.2875 76.4244 38.2875 76.4244 38.2875 76.4244C38.2875 76.4244 38.2875 76.4244 38.2875 76.4244C38.2875 76.4244 38.2875 76.4244 38.2875 76.4244C38.2875 76.4244 38.2875 76.4244 38.2875 76.4244C38.2875 76.4244 38.2875 76.4244 38.2875 76.4244C38.2875 76.4244 38.2875 76.4244 38.2875 76.4244C38.2875 76.4244 38.2875 76.4244 38.2875 76.4244C38.2875 76.4244 38.2875 76.4244 38.2875 76.4244C38.2875 76.4244 38.2875 76.4244 38.2875 76.4244C38.2875 76.4244 38.2875 76.4244 38.2875 76.4244C38.2875 76.4244 38.2875 76.4244 38.2875 76.4244C38.2875 76.4244 38.2875 76.4244 38.2875 76.4244C38.2875 76.4244 38.2875 76.4244 38.2875 76.4244C38.2875 76.4244 38.2875 76.4244 38.2875 76.4244C38.2875 76.4244 38.2875 76.4244 38.2875 76.4244C38.2875 76.4244 38.2875 76.4244 38.2875 76.4244C38.2875 76.4244 38.2875 76.4244 38.2875 76.4244C38.2875 76.4244 38.2875 76.4244 38.2875 76.4244C38.2875 76.4244 38.2875 76.4244 38.2875 76.4244C38.2875 76.4244 38.2875 76.4244 38.2875 76.4244C38.2875 76.4244 38.2875 76.4244 38.2875 76.4244C38.2875 76.4244 38.2875 76.4244 38.2875 76.4244C38.2875 76.4244 38.2875 76.4244 38.2875 76.4244C38.2875 76.4244 38.2875 76.4244 38.2875 76.4244C38.2875 76.4244 38.2875 76.4244 38.2875 76.4244C38.2875 76.4244 38.2875 76.4244 38.2875 76.4244C38.2875 76.4244 38.2875 76.4244 38.2875 76.4244C38.2875 76.4244 38.2875 76.4244 38.2875 76.4244C38.2875 76.4244 38.2875 76.4244 38.2875 76.4244C38.2875 76.4244 38.2875 76.4244 38.2875 76.4244C38.2875 76.4244 38.2875 76.4244 38.2875 76.4244C38.2875 76.4244 38.2875 76.4244 38.2875 76.4244C38.2875 76.4244 38.2875 76.4244 38.2875 76.4244C38.2875 76.4244 38.2875 76.4244 38.2875 76.4244C38.2875 76.4244 38.2875 76.4244 38.2875 76.4244C38.2875 76.4244 38.2875 76.4244 38.2875 76.4244C38.2875 76.4244 38.2875 76.4244 38.2875 76.4244C38.2875 76.4244 38.2875 76.4244 38.2875 76.4244C38.2875 76.4244 38.2875 76.4244 38.2875 76.4244C38.2875 76.4244 38.2874 76.4244 38.2874 76.4244C38.2874 76.4244 38.2874 76.4244 38.2874 76.4244C38.2874 76.4244 38.2874 76.4244 38.2874 76.4244C38.2874 76.4244 38.2874 76.4244 38.2874 76.4244C38.2874 76.4244 38.2874 76.4244 38.2874 76.4244C38.2874 76.4244 38.2874 76.4244 38.2874 76.4244C38.2874 76.4244 38.2874 76.4244 38.2874 76.4244C38.2874 76.4244 38.2874 76.4244 38.2874 76.4244C38.2874 76.4244 38.2874 76.4244 38.2874 76.4244C38.2874 76.4244 38.2874 76.4244 38.2874 76.4244C38.2874 76.4244 38.2874 76.4244 38.2874 76.4244C38.2874 76.4244 38.2874 76.4244 38.2874 76.4244C38.2874 76.4244 38.2874 76.4244 38.2874 76.4244C38.2874 76.4244 38.2874 76.4244 38.2874 76.4244C38.2874 76.4244 38.2874 76.4244 38.2874 76.4244C38.2874 76.4244 38.2874 76.4244 38.2874 76.4244C38.2874 76.4244 38.2874 76.4244 38.2874 76.4244C38.2874 76.4244 38.2874 76.4244 38.2874 76.4244C38.2874 76.4244 38.2874 76.4244 38.2874 76.4244C38.2874 76.4244 38.2874 76.4244 38.2874 76.4244C38.2874 76.4244 38.2874 76.4244 38.2874 76.4244C38.2874 76.4244 38.2874 76.4244 38.2874 76.4244C38.2874 76.4244 38.2874 76.4244 38.2874 76.4244C38.2874 76.4244 38.2874 76.4244 38.2874 76.4244C38.2874 76.4244 38.2874 76.4244 38.2874 76.4244C38.2874 76.4244 38.2874 76.4244 38.2874 76.4244C38.2874 76.4244 38.2874 76.4244 38.2874 76.4244C38.2874 76.4244 38.2874 76.4244 38.2874 76.4244C38.2874 76.4244 38.2874 76.4244 38.2874 76.4244C38.2874 76.4244 38.2874 76.4244 38.2874 76.4244C38.2874 76.4244 38.2874 76.4244 38.2874 76.4244C38.2874 76.4244 38.2874 76.4244 38.2874 76.4244C38.2874 76.4244 38.2874 76.4244 38.2874 76.4244C38.2874 76.4244 38.2874 76.4244 38.2874 76.4244C38.2874 76.4244 38.2874 76.4244 38.2874 76.4244C38.2874 76.4244 38.2874 76.4244 38.2874 76.4244C38.2874 76.4244 38.2874 76.4244 38.2874 76.4244C38.2874 76.4244 38.2874 76.4244 38.2874 76.4244C38.2874 76.4244 38.2874 76.4244 38.2874 76.4244C38.2874 76.4244 38.2874 76.4244 38.2874 76.4244C38.2874 76.4244 38.2874 76.4244 38.2874 76.4244C38.2874 76.4244 38.2874 76.4244 38.2874 76.4244C38.2874 76.4244 38.2874 76.4244 38.2874 76.4244C38.2874 76.4244 38.2874 76.4244 38.2874 76.4244C38.2874 76.4244 38.2874 76.4244 38.2874 76.4244C38.2874 76.4244 38.2874 76.4244 38.2874 76.4244C38.2874 76.4244 38.2874 76.4244 38.2874 76.4244C38.2874 76.4244 38.2874 76.4244 38.2874 76.4244C38.2874 76.4244 38.2874 76.4244 38.2874 76.4244C38.2874 76.4244 38.2874 76.4244 38.2874 76.4244C38.2874 76.4244 38.2874 76.4244 38.2874 76.4244C38.2874 76.4244 38.2874 76.4244 38.2874 76.4244C38.2874 76.4244 38.2874 76.4244 38.2873 76.4244C38.2873 76.4244 38.2873 76.4244 38.2873 76.4244C38.2873 76.4244 38.2873 76.4244 38.2873 76.4244C38.2873 76.4244 38.2873 76.4244 38.2873 76.4244C38.2873 76.4244 38.2873 76.4244 38.2873 76.4244C38.2873 76.4244 38.2873 76.4244 38.2873 76.4244C38.2873 76.4244 38.2873 76.4244 38.2873 76.4244C38.2873 76.4244 38.2873 76.4244 38.2873 76.4244C38.2873 76.4244 38.2873 76.4244 38.2873 76.4244C38.2873 76.4244 38.2873 76.4244 38.2873 76.4244C38.2873 76.4244 38.2873 76.4244 38.2873 76.4244C38.2873 76.4244 38.2873 76.4244 38.2873 76.4244C38.2873 76.4244 38.2873 76.4244 38.2873 76.4244C38.2873 76.4244 38.2873 76.4244 38.2873 76.4244C38.2873 76.4244 38.2873 76.4244 38.2873 76.4244C38.2873 76.4244 38.2873 76.4244 38.2873 76.4244C38.2873 76.4244 38.2873 76.4244 38.2873 76.4244C38.2873 76.4244 38.2873 76.4244 38.2873 76.4244C38.2873 76.4244 38.2873 76.4244 38.2873 76.4244C38.2873 76.4244 38.2873 76.4244 38.2873 76.4244C38.2873 76.4244 38.2873 76.4244 38.2873 76.4244C38.2873 76.4244 38.2873 76.4244 38.2873 76.4244C38.2873 76.4244 38.2873 76.4244 38.2873 76.4244C38.2873 76.4244 38.2873 76.4244 38.2873 76.4244C38.2873 76.4244 38.2873 76.4244 38.2873 76.4244C38.2873 76.4244 38.2873 76.4244 38.2873 76.4244C38.2873 76.4244 38.2873 76.4244 38.2873 76.4244C38.2873 76.4244 38.2873 76.4244 38.2873 76.4244C38.2873 76.4244 38.2873 76.4244 38.2873 76.4244C38.2873 76.4244 38.2873 76.4244 38.2873 76.4244C38.2873 76.4244 38.2873 76.4244 38.2873 76.4244C38.2873 76.4244 38.2873 76.4244 38.2873 76.4244C38.2873 76.4244 38.2873 76.4244 38.2873 76.4244C38.2873 76.4244 38.2873 76.4244 38.2873 76.4244C38.2873 76.4244 38.2873 76.4244 38.2873 76.4244C38.2873 76.4244 38.2873 76.4244 38.2873 76.4244C38.2873 76.4244 38.2873 76.4244 38.2873 76.4244C38.2873 76.4244 38.2873 76.4244 38.2873 76.4244C38.2873 76.4244 38.2873 76.4244 38.2873 76.4244C38.2873 76.4244 38.2873 76.4244 38.2873 76.4244C38.2873 76.4244 38.2873 76.4244 38.2873 76.4244C38.2873 76.4244 38.2873 76.4244 38.2873 76.4244C38.2873 76.4244 38.2873 76.4244 38.2873 76.4244C38.2873 76.4244 38.2873 76.4244 38.2873 76.4244C38.2873 76.4244 38.2873 76.4244 38.2873 76.4244C38.2873 76.4244 38.2873 76.4244 38.2873 76.4244C38.2873 76.4244 38.2873 76.4244 38.2873 76.4244C38.2873 76.4244 38.2873 76.4244 38.2873 76.4244C38.2873 76.4244 38.2873 76.4244 38.2873 76.4244C38.2873 76.4244 38.2873 76.4244 38.2873 76.4244C38.2873 76.4244 38.2873 76.4244 38.2873 76.4244C38.2873 76.4244 38.2873 76.4244 38.2873 76.4244C38.2873 76.4244 38.2873 76.4244 38.2873 76.4244C38.2872 76.4244 38.2872 76.4244 38.2872 76.4244C38.2872 76.4244 38.2872 76.4244 38.2872 76.4244C38.2872 76.4244 38.2872 76.4244 38.2872 76.4244C38.2872 76.4244 38.2872 76.4244 38.2872 76.4244C38.2872 76.4244 38.2872 76.4244 38.2872 76.4244C38.2872 76.4244 38.2872 76.4244 38.2872 76.4244C38.2872 76.4244 38.2872 76.4244 38.2872 76.4244C38.2872 76.4244 38.2872 76.4244 38.2872 76.4244C38.2872 76.4244 38.2872 76.4244 38.2872 76.4244C38.2872 76.4244 38.2872 76.4244 38.2872 76.4244C38.2872 76.4244 38.2872 76.4244 38.2872 76.4244C38.2872 76.4244 38.2872 76.4244 38.2872 76.4244C38.2872 76.4244 38.2872 76.4244 38.2872 76.4244C38.2872 76.4244 38.2872 76.4244 38.2872 76.4244C38.2872 76.4244 38.2872 76.4244 38.2872 76.4244C38.2872 76.4244 38.2872 76.4244 38.2872 76.4244C38.2872 76.4244 38.2872 76.4244 38.2872 76.4244C38.2872 76.4244 38.2872 76.4244 38.2872 76.4244C38.2872 76.4244 38.2872 76.4244 38.2872 76.4244C38.2872 76.4244 38.2872 76.4244 38.2872 76.4244C38.2872 76.4244 38.2872 76.4244 38.2872 76.4244C38.2872 76.4244 38.2872 76.4244 38.2872 76.4244C38.2872 76.4244 38.2872 76.4244 38.2872 76.4244C38.2872 76.4244 38.2872 76.4244 38.2872 76.4244C38.2872 76.4244 38.2872 76.4244 38.2872 76.4244C38.2872 76.4244 38.2872 76.4244 38.2872 76.4244C38.2872 76.4244 38.2872 76.4244 38.2872 76.4244C38.2872 76.4244 38.2872 76.4244 38.2872 76.4244C38.2872 76.4244 38.2872 76.4244 38.2872 76.4244C38.2872 76.4244 38.2872 76.4244 38.2872 76.4244C38.2872 76.4244 38.2872 76.4244 38.2872 76.4244C38.2872 76.4244 38.2872 76.4244 38.2872 76.4244C38.2872 76.4244 38.2872 76.4244 38.2872 76.4244C38.2872 76.4244 38.2872 76.4244 38.2872 76.4244C38.2872 76.4244 38.2872 76.4244 38.2872 76.4244C38.2872 76.4244 38.2872 76.4244 38.2872 76.4244C38.2872 76.4244 38.2872 76.4244 38.2872 76.4244C38.2872 76.4244 38.2872 76.4244 38.2872 76.4244C38.2872 76.4244 38.2872 76.4244 38.2872 76.4244C38.2872 76.4244 38.2872 76.4244 38.2872 76.4244C38.2872 76.4244 38.2872 76.4244 38.2872 76.4244C38.2872 76.4244 38.2872 76.4244 38.2872 76.4244C38.2872 76.4244 38.2872 76.4244 38.2872 76.4244C38.2872 76.4244 38.2872 76.4244 38.2872 76.4244C38.2872 76.4244 38.2872 76.4244 38.2872 76.4244C38.2872 76.4244 38.2872 76.4244 38.2872 76.4244C38.2872 76.4244 38.2872 76.4244 38.2872 76.4244C38.2872 76.4244 38.2872 76.4244 38.2872 76.4244C38.2872 76.4244 38.2872 76.4244 38.2872 76.4244C38.2872 76.4244 38.2872 76.4244 38.2872 76.4244C38.2872 76.4244 38.2872 76.4244 38.2872 76.4244C38.2872 76.4244 38.2872 76.4244 38.2872 76.4244C38.2871 76.4244 38.2871 76.4244 38.2871 76.4244C38.2871 76.4244 38.2871 76.4244 38.2871 76.4244C38.2871 76.4244 38.2871 76.4244 38.2871 76.4244C38.2871 76.4244 38.2871 76.4244 38.2871 76.4244C38.2871 76.4244 38.2871 76.4244 38.2871 76.4244C38.2871 76.4244 38.2871 76.4244 38.2871 76.4244C38.2871 76.4244 38.2871 76.4244 38.2871 76.4244C38.2871 76.4244 38.2871 76.4244 38.2871 76.4244C38.2871 76.4244 38.2871 76.4244 38.2871 76.4244C38.2871 76.4244 38.2871 76.4244 38.2871 76.4244C38.2871 76.4244 38.2871 76.4244 38.2871 76.4244C38.2871 76.4244 38.2871 76.4244 38.2871 76.4244C38.2871 76.4244 38.2871 76.4244 38.2871 76.4244C38.2871 76.4244 38.2871 76.4244 38.2871 76.4244C38.2871 76.4244 38.2871 76.4244 38.2871 76.4244C38.2871 76.4244 38.2871 76.4244 38.2871 76.4244C38.2871 76.4244 38.2871 76.4244 38.2871 76.4244C38.2871 76.4244 38.2871 76.4244 38.2871 76.4244C38.2871 76.4244 38.2871 76.4244 38.2871 76.4244C38.2871 76.4244 38.2871 76.4244 38.2871 76.4244C38.2871 76.4244 38.2871 76.4244 38.2871 76.4244C38.2871 76.4244 38.2871 76.4244 38.2871 76.4244C38.2871 76.4244 38.2871 76.4244 38.2871 76.4244C38.2871 76.4244 38.2871 76.4244 38.2871 76.4244C38.2871 76.4244 38.2871 76.4244 38.2871 76.4244C38.2871 76.4244 38.2871 76.4244 38.2871 76.4244C38.2871 76.4244 38.2871 76.4244 38.2871 76.4244C38.2871 76.4244 38.2871 76.4244 38.2871 76.4244C38.2871 76.4244 38.2871 76.4244 38.2871 76.4244C38.2871 76.4244 38.2871 76.4244 38.2871 76.4244C38.2871 76.4244 38.2871 76.4244 38.2871 76.4244C38.2871 76.4244 38.2871 76.4244 38.2871 76.4244C38.2871 76.4244 38.2871 76.4244 38.2871 76.4244C38.2871 76.4244 38.2871 76.4244 38.2871 76.4244C38.2871 76.4244 38.2871 76.4244 38.2871 76.4244C38.2871 76.4244 38.2871 76.4244 38.2871 76.4244C38.2871 76.4244 38.2871 76.4244 38.2871 76.4244C38.2871 76.4244 38.2871 76.4244 38.2871 76.4244C38.2871 76.4244 38.2871 76.4244 38.2871 76.4244C38.2871 76.4244 38.2871 76.4244 38.2871 76.4244C38.2871 76.4244 38.2871 76.4244 38.2871 76.4244C38.2871 76.4244 38.2871 76.4244 38.2871 76.4244C38.2871 76.4244 38.2871 76.4244 38.2871 76.4244C38.2871 76.4244 38.2871 76.4244 38.2871 76.4244C38.2871 76.4244 38.2871 76.4244 38.2871 76.4244C38.2871 76.4244 38.2871 76.4244 38.2871 76.4244C38.2871 76.4244 38.2871 76.4244 38.2871 76.4244C38.2871 76.4244 38.2871 76.4244 38.2871 76.4244C38.2871 76.4244 38.2871 76.4244 38.2871 76.4244C38.2871 76.4244 38.2871 76.4244 38.2871 76.4244C38.2871 76.4244 38.2871 76.4244 38.2871 76.4244C38.2871 76.4244 38.2871 76.4244 38.2871 76.4244C38.2871 76.4244 38.287 76.4244 38.287 76.4244C38.287 76.4244 38.287 76.4244 38.287 76.4244C38.287 76.4244 38.287 76.4244 38.287 76.4244C38.287 76.4244 38.287 76.4244 38.287 76.4244C38.287 76.4244 38.287 76.4244 38.287 76.4244C38.287 76.4244 38.287 76.4244 38.287 76.4244C38.287 76.4244 38.287 76.4244 38.287 76.4244C38.287 76.4244 38.287 76.4244 38.287 76.4244C38.287 76.4244 38.287 76.4244 38.287 76.4244C38.287 76.4244 38.287 76.4244 38.287 76.4244C38.287 76.4244 38.287 76.4244 38.287 76.4244C38.287 76.4244 38.287 76.4244 38.287 76.4244C38.287 76.4244 38.287 76.4244 38.287 76.4244C38.287 76.4244 38.287 76.4244 38.287 76.4244C38.287 76.4244 38.287 76.4244 38.287 76.4244C38.287 76.4244 38.287 76.4244 38.287 76.4244C38.287 76.4244 38.287 76.4244 38.287 76.4244C38.287 76.4244 38.287 76.4244 38.287 76.4244C38.287 76.4244 38.287 76.4244 38.287 76.4244C38.287 76.4244 38.287 76.4244 38.287 76.4244C38.287 76.4244 38.287 76.4244 38.287 76.4244C38.287 76.4244 38.287 76.4244 38.287 76.4244C38.287 76.4244 38.287 76.4244 38.287 76.4244C38.287 76.4244 38.287 76.4244 38.287 76.4244C38.287 76.4244 38.287 76.4244 38.287 76.4244C38.287 76.4244 38.287 76.4244 38.287 76.4244C38.287 76.4244 38.287 76.4244 38.287 76.4244C38.287 76.4244 38.287 76.4244 38.287 76.4244C38.287 76.4244 38.287 76.4244 38.287 76.4244C38.287 76.4244 38.287 76.4244 38.287 76.4244C38.287 76.4244 38.287 76.4244 38.287 76.4244C38.287 76.4244 38.287 76.4244 38.287 76.4244C38.287 76.4244 38.287 76.4244 38.287 76.4244C38.287 76.4244 38.287 76.4244 38.287 76.4244C38.287 76.4244 38.287 76.4244 38.287 76.4244C38.287 76.4244 38.287 76.4244 38.287 76.4244C38.287 76.4244 38.287 76.4244 38.287 76.4244C38.287 76.4244 38.287 76.4244 38.287 76.4244C38.287 76.4244 38.287 76.4244 38.287 76.4244C38.287 76.4244 38.287 76.4244 38.287 76.4244C38.287 76.4244 38.287 76.4244 38.287 76.4244C38.287 76.4244 38.287 76.4244 38.287 76.4244C38.287 76.4244 38.287 76.4244 38.287 76.4244C38.287 76.4244 38.287 76.4244 38.287 76.4244C38.287 76.4244 38.287 76.4244 38.287 76.4244C38.287 76.4244 38.287 76.4244 38.287 76.4244C38.287 76.4244 38.287 76.4244 38.287 76.4244C38.287 76.4244 38.287 76.4244 38.287 76.4244C38.287 76.4244 38.287 76.4244 38.287 76.4244C38.287 76.4244 38.287 76.4244 38.287 76.4244C38.287 76.4244 38.287 76.4244 38.287 76.4244C38.287 76.4244 38.287 76.4244 38.287 76.4244C38.287 76.4244 38.287 76.4244 38.2869 76.4244C38.2869 76.4244 38.2869 76.4244 38.2869 76.4244C38.2869 76.4244 38.2869 76.4244 38.2869 76.4244C38.2869 76.4244 38.2869 76.4244 38.2869 76.4244C38.2869 76.4244 38.2869 76.4244 38.2869 76.4244C38.2869 76.4244 38.2869 76.4244 38.2869 76.4244C38.2869 76.4244 38.2869 76.4244 38.2869 76.4244C38.2869 76.4244 38.2869 76.4244 38.2869 76.4244C38.2869 76.4244 38.2869 76.4244 38.2869 76.4244C38.2869 76.4244 38.2869 76.4244 38.2869 76.4244C38.2869 76.4244 38.2869 76.4244 38.2869 76.4244C38.2869 76.4244 38.2869 76.4244 38.2869 76.4244C38.2869 76.4244 38.2869 76.4244 38.2869 76.4244C38.2869 76.4244 38.2869 76.4244 38.2869 76.4244C38.2869 76.4244 38.2869 76.4244 38.2869 76.4244C38.2869 76.4244 38.2869 76.4244 38.2869 76.4244C38.2869 76.4244 38.2869 76.4244 38.2869 76.4244C38.2869 76.4244 38.2869 76.4244 38.2869 76.4244C38.2869 76.4244 38.2869 76.4244 38.2869 76.4244C38.2869 76.4244 38.2869 76.4244 38.2869 76.4244C38.2869 76.4244 38.2869 76.4244 38.2869 76.4244C38.2869 76.4244 38.2869 76.4244 38.2869 76.4244C38.2869 76.4244 38.2869 76.4244 38.2869 76.4244C38.2869 76.4244 38.2869 76.4244 38.2869 76.4244C38.2869 76.4244 38.2869 76.4244 38.2869 76.4244C38.2869 76.4244 38.2869 76.4244 38.2869 76.4244C38.2869 76.4244 38.2869 76.4244 38.2869 76.4244C38.2869 76.4244 38.2869 76.4244 38.2869 76.4244C38.2869 76.4244 38.2869 76.4244 38.2869 76.4244C38.2869 76.4244 38.2869 76.4244 38.2869 76.4244C38.2869 76.4244 38.2869 76.4244 38.2869 76.4244C38.2869 76.4244 38.2869 76.4244 38.2869 76.4244C38.2869 76.4244 38.2869 76.4244 38.2869 76.4244C38.2869 76.4244 38.2869 76.4244 38.2869 76.4244C38.2869 76.4244 38.2869 76.4244 38.2869 76.4244C38.2869 76.4244 38.2869 76.4244 38.2869 76.4244C38.2869 76.4244 38.2869 76.4244 38.2869 76.4244C38.2869 76.4244 38.2869 76.4244 38.2869 76.4244C38.2869 76.4244 38.2869 76.4244 38.2869 76.4244C38.2869 76.4244 38.2869 76.4244 38.2869 76.4244C38.2869 76.4244 38.2869 76.4244 38.2869 76.4244C38.2869 76.4244 38.2869 76.4244 38.2869 76.4244C38.2869 76.4244 38.2869 76.4244 38.2869 76.4244C38.2869 76.4244 38.2869 76.4244 38.2869 76.4244C38.2869 76.4244 38.2869 76.4244 38.2869 76.4244V78.4244C38.2869 78.4244 38.2869 78.4244 38.2869 78.4244C38.2869 78.4244 38.2869 78.4244 38.2869 78.4244C38.2869 78.4244 38.2869 78.4244 38.2869 78.4244C38.2869 78.4244 38.2869 78.4244 38.2869 78.4244C38.2869 78.4244 38.2869 78.4244 38.2869 78.4244C38.2869 78.4244 38.2869 78.4244 38.2869 78.4244C38.2869 78.4244 38.2869 78.4244 38.2869 78.4244C38.2869 78.4244 38.2869 78.4244 38.2869 78.4244C38.2869 78.4244 38.2869 78.4244 38.2869 78.4244C38.2869 78.4244 38.2869 78.4244 38.2869 78.4244C38.2869 78.4244 38.2869 78.4244 38.2869 78.4244C38.2869 78.4244 38.2869 78.4244 38.2869 78.4244C38.2869 78.4244 38.2869 78.4244 38.2869 78.4244C38.2869 78.4244 38.2869 78.4244 38.2869 78.4244C38.2869 78.4244 38.2869 78.4244 38.2869 78.4244C38.2869 78.4244 38.2869 78.4244 38.2869 78.4244C38.2869 78.4244 38.2869 78.4244 38.2869 78.4244C38.2869 78.4244 38.2869 78.4244 38.2869 78.4244C38.2869 78.4244 38.2869 78.4244 38.2869 78.4244C38.2869 78.4244 38.2869 78.4244 38.2869 78.4244C38.2869 78.4244 38.2869 78.4244 38.2869 78.4244C38.2869 78.4244 38.2869 78.4244 38.2869 78.4244C38.2869 78.4244 38.2869 78.4244 38.2869 78.4244C38.2869 78.4244 38.2869 78.4244 38.2869 78.4244C38.2869 78.4244 38.2869 78.4244 38.2869 78.4244C38.2869 78.4244 38.2869 78.4244 38.2869 78.4244C38.2869 78.4244 38.2869 78.4244 38.2869 78.4244C38.2869 78.4244 38.2869 78.4244 38.2869 78.4244C38.2869 78.4244 38.2869 78.4244 38.2869 78.4244C38.2869 78.4244 38.2869 78.4244 38.2869 78.4244C38.2869 78.4244 38.2869 78.4244 38.2869 78.4244C38.2869 78.4244 38.2869 78.4244 38.2869 78.4244C38.2869 78.4244 38.2869 78.4244 38.2869 78.4244C38.2869 78.4244 38.2869 78.4244 38.2869 78.4244C38.2869 78.4244 38.2869 78.4244 38.2869 78.4244C38.2869 78.4244 38.2869 78.4244 38.2869 78.4244C38.2869 78.4244 38.2869 78.4244 38.2869 78.4244C38.2869 78.4244 38.2869 78.4244 38.2869 78.4244C38.2869 78.4244 38.2869 78.4244 38.2869 78.4244C38.2869 78.4244 38.2869 78.4244 38.2869 78.4244C38.2869 78.4244 38.2869 78.4244 38.2869 78.4244C38.2869 78.4244 38.2869 78.4244 38.2869 78.4244C38.2869 78.4244 38.2869 78.4244 38.2869 78.4244C38.2869 78.4244 38.2869 78.4244 38.2869 78.4244C38.287 78.4244 38.287 78.4244 38.287 78.4244C38.287 78.4244 38.287 78.4244 38.287 78.4244C38.287 78.4244 38.287 78.4244 38.287 78.4244C38.287 78.4244 38.287 78.4244 38.287 78.4244C38.287 78.4244 38.287 78.4244 38.287 78.4244C38.287 78.4244 38.287 78.4244 38.287 78.4244C38.287 78.4244 38.287 78.4244 38.287 78.4244C38.287 78.4244 38.287 78.4244 38.287 78.4244C38.287 78.4244 38.287 78.4244 38.287 78.4244C38.287 78.4244 38.287 78.4244 38.287 78.4244C38.287 78.4244 38.287 78.4244 38.287 78.4244C38.287 78.4244 38.287 78.4244 38.287 78.4244C38.287 78.4244 38.287 78.4244 38.287 78.4244C38.287 78.4244 38.287 78.4244 38.287 78.4244C38.287 78.4244 38.287 78.4244 38.287 78.4244C38.287 78.4244 38.287 78.4244 38.287 78.4244C38.287 78.4244 38.287 78.4244 38.287 78.4244C38.287 78.4244 38.287 78.4244 38.287 78.4244C38.287 78.4244 38.287 78.4244 38.287 78.4244C38.287 78.4244 38.287 78.4244 38.287 78.4244C38.287 78.4244 38.287 78.4244 38.287 78.4244C38.287 78.4244 38.287 78.4244 38.287 78.4244C38.287 78.4244 38.287 78.4244 38.287 78.4244C38.287 78.4244 38.287 78.4244 38.287 78.4244C38.287 78.4244 38.287 78.4244 38.287 78.4244C38.287 78.4244 38.287 78.4244 38.287 78.4244C38.287 78.4244 38.287 78.4244 38.287 78.4244C38.287 78.4244 38.287 78.4244 38.287 78.4244C38.287 78.4244 38.287 78.4244 38.287 78.4244C38.287 78.4244 38.287 78.4244 38.287 78.4244C38.287 78.4244 38.287 78.4244 38.287 78.4244C38.287 78.4244 38.287 78.4244 38.287 78.4244C38.287 78.4244 38.287 78.4244 38.287 78.4244C38.287 78.4244 38.287 78.4244 38.287 78.4244C38.287 78.4244 38.287 78.4244 38.287 78.4244C38.287 78.4244 38.287 78.4244 38.287 78.4244C38.287 78.4244 38.287 78.4244 38.287 78.4244C38.287 78.4244 38.287 78.4244 38.287 78.4244C38.287 78.4244 38.287 78.4244 38.287 78.4244C38.287 78.4244 38.287 78.4244 38.287 78.4244C38.287 78.4244 38.287 78.4244 38.287 78.4244C38.287 78.4244 38.287 78.4244 38.287 78.4244C38.287 78.4244 38.287 78.4244 38.287 78.4244C38.287 78.4244 38.287 78.4244 38.287 78.4244C38.287 78.4244 38.287 78.4244 38.287 78.4244C38.287 78.4244 38.287 78.4244 38.287 78.4244C38.287 78.4244 38.287 78.4244 38.287 78.4244C38.287 78.4244 38.287 78.4244 38.287 78.4244C38.287 78.4244 38.287 78.4244 38.287 78.4244C38.287 78.4244 38.287 78.4244 38.287 78.4244C38.287 78.4244 38.287 78.4244 38.287 78.4244C38.287 78.4244 38.287 78.4244 38.287 78.4244C38.287 78.4244 38.2871 78.4244 38.2871 78.4244C38.2871 78.4244 38.2871 78.4244 38.2871 78.4244C38.2871 78.4244 38.2871 78.4244 38.2871 78.4244C38.2871 78.4244 38.2871 78.4244 38.2871 78.4244C38.2871 78.4244 38.2871 78.4244 38.2871 78.4244C38.2871 78.4244 38.2871 78.4244 38.2871 78.4244C38.2871 78.4244 38.2871 78.4244 38.2871 78.4244C38.2871 78.4244 38.2871 78.4244 38.2871 78.4244C38.2871 78.4244 38.2871 78.4244 38.2871 78.4244C38.2871 78.4244 38.2871 78.4244 38.2871 78.4244C38.2871 78.4244 38.2871 78.4244 38.2871 78.4244C38.2871 78.4244 38.2871 78.4244 38.2871 78.4244C38.2871 78.4244 38.2871 78.4244 38.2871 78.4244C38.2871 78.4244 38.2871 78.4244 38.2871 78.4244C38.2871 78.4244 38.2871 78.4244 38.2871 78.4244C38.2871 78.4244 38.2871 78.4244 38.2871 78.4244C38.2871 78.4244 38.2871 78.4244 38.2871 78.4244C38.2871 78.4244 38.2871 78.4244 38.2871 78.4244C38.2871 78.4244 38.2871 78.4244 38.2871 78.4244C38.2871 78.4244 38.2871 78.4244 38.2871 78.4244C38.2871 78.4244 38.2871 78.4244 38.2871 78.4244C38.2871 78.4244 38.2871 78.4244 38.2871 78.4244C38.2871 78.4244 38.2871 78.4244 38.2871 78.4244C38.2871 78.4244 38.2871 78.4244 38.2871 78.4244C38.2871 78.4244 38.2871 78.4244 38.2871 78.4244C38.2871 78.4244 38.2871 78.4244 38.2871 78.4244C38.2871 78.4244 38.2871 78.4244 38.2871 78.4244C38.2871 78.4244 38.2871 78.4244 38.2871 78.4244C38.2871 78.4244 38.2871 78.4244 38.2871 78.4244C38.2871 78.4244 38.2871 78.4244 38.2871 78.4244C38.2871 78.4244 38.2871 78.4244 38.2871 78.4244C38.2871 78.4244 38.2871 78.4244 38.2871 78.4244C38.2871 78.4244 38.2871 78.4244 38.2871 78.4244C38.2871 78.4244 38.2871 78.4244 38.2871 78.4244C38.2871 78.4244 38.2871 78.4244 38.2871 78.4244C38.2871 78.4244 38.2871 78.4244 38.2871 78.4244C38.2871 78.4244 38.2871 78.4244 38.2871 78.4244C38.2871 78.4244 38.2871 78.4244 38.2871 78.4244C38.2871 78.4244 38.2871 78.4244 38.2871 78.4244C38.2871 78.4244 38.2871 78.4244 38.2871 78.4244C38.2871 78.4244 38.2871 78.4244 38.2871 78.4244C38.2871 78.4244 38.2871 78.4244 38.2871 78.4244C38.2871 78.4244 38.2871 78.4244 38.2871 78.4244C38.2871 78.4244 38.2871 78.4244 38.2871 78.4244C38.2871 78.4244 38.2871 78.4244 38.2871 78.4244C38.2871 78.4244 38.2871 78.4244 38.2871 78.4244C38.2871 78.4244 38.2871 78.4244 38.2871 78.4244C38.2871 78.4244 38.2871 78.4244 38.2871 78.4244C38.2871 78.4244 38.2871 78.4244 38.2871 78.4244C38.2871 78.4244 38.2871 78.4244 38.2871 78.4244C38.2871 78.4244 38.2871 78.4244 38.2871 78.4244C38.2871 78.4244 38.2871 78.4244 38.2871 78.4244C38.2871 78.4244 38.2871 78.4244 38.2872 78.4244C38.2872 78.4244 38.2872 78.4244 38.2872 78.4244C38.2872 78.4244 38.2872 78.4244 38.2872 78.4244C38.2872 78.4244 38.2872 78.4244 38.2872 78.4244C38.2872 78.4244 38.2872 78.4244 38.2872 78.4244C38.2872 78.4244 38.2872 78.4244 38.2872 78.4244C38.2872 78.4244 38.2872 78.4244 38.2872 78.4244C38.2872 78.4244 38.2872 78.4244 38.2872 78.4244C38.2872 78.4244 38.2872 78.4244 38.2872 78.4244C38.2872 78.4244 38.2872 78.4244 38.2872 78.4244C38.2872 78.4244 38.2872 78.4244 38.2872 78.4244C38.2872 78.4244 38.2872 78.4244 38.2872 78.4244C38.2872 78.4244 38.2872 78.4244 38.2872 78.4244C38.2872 78.4244 38.2872 78.4244 38.2872 78.4244C38.2872 78.4244 38.2872 78.4244 38.2872 78.4244C38.2872 78.4244 38.2872 78.4244 38.2872 78.4244C38.2872 78.4244 38.2872 78.4244 38.2872 78.4244C38.2872 78.4244 38.2872 78.4244 38.2872 78.4244C38.2872 78.4244 38.2872 78.4244 38.2872 78.4244C38.2872 78.4244 38.2872 78.4244 38.2872 78.4244C38.2872 78.4244 38.2872 78.4244 38.2872 78.4244C38.2872 78.4244 38.2872 78.4244 38.2872 78.4244C38.2872 78.4244 38.2872 78.4244 38.2872 78.4244C38.2872 78.4244 38.2872 78.4244 38.2872 78.4244C38.2872 78.4244 38.2872 78.4244 38.2872 78.4244C38.2872 78.4244 38.2872 78.4244 38.2872 78.4244C38.2872 78.4244 38.2872 78.4244 38.2872 78.4244C38.2872 78.4244 38.2872 78.4244 38.2872 78.4244C38.2872 78.4244 38.2872 78.4244 38.2872 78.4244C38.2872 78.4244 38.2872 78.4244 38.2872 78.4244C38.2872 78.4244 38.2872 78.4244 38.2872 78.4244C38.2872 78.4244 38.2872 78.4244 38.2872 78.4244C38.2872 78.4244 38.2872 78.4244 38.2872 78.4244C38.2872 78.4244 38.2872 78.4244 38.2872 78.4244C38.2872 78.4244 38.2872 78.4244 38.2872 78.4244C38.2872 78.4244 38.2872 78.4244 38.2872 78.4244C38.2872 78.4244 38.2872 78.4244 38.2872 78.4244C38.2872 78.4244 38.2872 78.4244 38.2872 78.4244C38.2872 78.4244 38.2872 78.4244 38.2872 78.4244C38.2872 78.4244 38.2872 78.4244 38.2872 78.4244C38.2872 78.4244 38.2872 78.4244 38.2872 78.4244C38.2872 78.4244 38.2872 78.4244 38.2872 78.4244C38.2872 78.4244 38.2872 78.4244 38.2872 78.4244C38.2872 78.4244 38.2872 78.4244 38.2872 78.4244C38.2872 78.4244 38.2872 78.4244 38.2872 78.4244C38.2872 78.4244 38.2872 78.4244 38.2872 78.4244C38.2872 78.4244 38.2872 78.4244 38.2872 78.4244C38.2872 78.4244 38.2872 78.4244 38.2872 78.4244C38.2872 78.4244 38.2872 78.4244 38.2872 78.4244C38.2872 78.4244 38.2872 78.4244 38.2872 78.4244C38.2872 78.4244 38.2872 78.4244 38.2872 78.4244C38.2872 78.4244 38.2872 78.4244 38.2872 78.4244C38.2872 78.4244 38.2872 78.4244 38.2873 78.4244C38.2873 78.4244 38.2873 78.4244 38.2873 78.4244C38.2873 78.4244 38.2873 78.4244 38.2873 78.4244C38.2873 78.4244 38.2873 78.4244 38.2873 78.4244C38.2873 78.4244 38.2873 78.4244 38.2873 78.4244C38.2873 78.4244 38.2873 78.4244 38.2873 78.4244C38.2873 78.4244 38.2873 78.4244 38.2873 78.4244C38.2873 78.4244 38.2873 78.4244 38.2873 78.4244C38.2873 78.4244 38.2873 78.4244 38.2873 78.4244C38.2873 78.4244 38.2873 78.4244 38.2873 78.4244C38.2873 78.4244 38.2873 78.4244 38.2873 78.4244C38.2873 78.4244 38.2873 78.4244 38.2873 78.4244C38.2873 78.4244 38.2873 78.4244 38.2873 78.4244C38.2873 78.4244 38.2873 78.4244 38.2873 78.4244C38.2873 78.4244 38.2873 78.4244 38.2873 78.4244C38.2873 78.4244 38.2873 78.4244 38.2873 78.4244C38.2873 78.4244 38.2873 78.4244 38.2873 78.4244C38.2873 78.4244 38.2873 78.4244 38.2873 78.4244C38.2873 78.4244 38.2873 78.4244 38.2873 78.4244C38.2873 78.4244 38.2873 78.4244 38.2873 78.4244C38.2873 78.4244 38.2873 78.4244 38.2873 78.4244C38.2873 78.4244 38.2873 78.4244 38.2873 78.4244C38.2873 78.4244 38.2873 78.4244 38.2873 78.4244C38.2873 78.4244 38.2873 78.4244 38.2873 78.4244C38.2873 78.4244 38.2873 78.4244 38.2873 78.4244C38.2873 78.4244 38.2873 78.4244 38.2873 78.4244C38.2873 78.4244 38.2873 78.4244 38.2873 78.4244C38.2873 78.4244 38.2873 78.4244 38.2873 78.4244C38.2873 78.4244 38.2873 78.4244 38.2873 78.4244C38.2873 78.4244 38.2873 78.4244 38.2873 78.4244C38.2873 78.4244 38.2873 78.4244 38.2873 78.4244C38.2873 78.4244 38.2873 78.4244 38.2873 78.4244C38.2873 78.4244 38.2873 78.4244 38.2873 78.4244C38.2873 78.4244 38.2873 78.4244 38.2873 78.4244C38.2873 78.4244 38.2873 78.4244 38.2873 78.4244C38.2873 78.4244 38.2873 78.4244 38.2873 78.4244C38.2873 78.4244 38.2873 78.4244 38.2873 78.4244C38.2873 78.4244 38.2873 78.4244 38.2873 78.4244C38.2873 78.4244 38.2873 78.4244 38.2873 78.4244C38.2873 78.4244 38.2873 78.4244 38.2873 78.4244C38.2873 78.4244 38.2873 78.4244 38.2873 78.4244C38.2873 78.4244 38.2873 78.4244 38.2873 78.4244C38.2873 78.4244 38.2873 78.4244 38.2873 78.4244C38.2873 78.4244 38.2873 78.4244 38.2873 78.4244C38.2873 78.4244 38.2873 78.4244 38.2873 78.4244C38.2873 78.4244 38.2873 78.4244 38.2873 78.4244C38.2873 78.4244 38.2873 78.4244 38.2873 78.4244C38.2873 78.4244 38.2873 78.4244 38.2873 78.4244C38.2873 78.4244 38.2873 78.4244 38.2873 78.4244C38.2873 78.4244 38.2873 78.4244 38.2873 78.4244C38.2873 78.4244 38.2873 78.4244 38.2873 78.4244C38.2873 78.4244 38.2873 78.4244 38.2873 78.4244C38.2873 78.4244 38.2873 78.4244 38.2873 78.4244C38.2874 78.4244 38.2874 78.4244 38.2874 78.4244C38.2874 78.4244 38.2874 78.4244 38.2874 78.4244C38.2874 78.4244 38.2874 78.4244 38.2874 78.4244C38.2874 78.4244 38.2874 78.4244 38.2874 78.4244C38.2874 78.4244 38.2874 78.4244 38.2874 78.4244C38.2874 78.4244 38.2874 78.4244 38.2874 78.4244C38.2874 78.4244 38.2874 78.4244 38.2874 78.4244C38.2874 78.4244 38.2874 78.4244 38.2874 78.4244C38.2874 78.4244 38.2874 78.4244 38.2874 78.4244C38.2874 78.4244 38.2874 78.4244 38.2874 78.4244C38.2874 78.4244 38.2874 78.4244 38.2874 78.4244C38.2874 78.4244 38.2874 78.4244 38.2874 78.4244C38.2874 78.4244 38.2874 78.4244 38.2874 78.4244C38.2874 78.4244 38.2874 78.4244 38.2874 78.4244C38.2874 78.4244 38.2874 78.4244 38.2874 78.4244C38.2874 78.4244 38.2874 78.4244 38.2874 78.4244C38.2874 78.4244 38.2874 78.4244 38.2874 78.4244C38.2874 78.4244 38.2874 78.4244 38.2874 78.4244C38.2874 78.4244 38.2874 78.4244 38.2874 78.4244C38.2874 78.4244 38.2874 78.4244 38.2874 78.4244C38.2874 78.4244 38.2874 78.4244 38.2874 78.4244C38.2874 78.4244 38.2874 78.4244 38.2874 78.4244C38.2874 78.4244 38.2874 78.4244 38.2874 78.4244C38.2874 78.4244 38.2874 78.4244 38.2874 78.4244C38.2874 78.4244 38.2874 78.4244 38.2874 78.4244C38.2874 78.4244 38.2874 78.4244 38.2874 78.4244C38.2874 78.4244 38.2874 78.4244 38.2874 78.4244C38.2874 78.4244 38.2874 78.4244 38.2874 78.4244C38.2874 78.4244 38.2874 78.4244 38.2874 78.4244C38.2874 78.4244 38.2874 78.4244 38.2874 78.4244C38.2874 78.4244 38.2874 78.4244 38.2874 78.4244C38.2874 78.4244 38.2874 78.4244 38.2874 78.4244C38.2874 78.4244 38.2874 78.4244 38.2874 78.4244C38.2874 78.4244 38.2874 78.4244 38.2874 78.4244C38.2874 78.4244 38.2874 78.4244 38.2874 78.4244C38.2874 78.4244 38.2874 78.4244 38.2874 78.4244C38.2874 78.4244 38.2874 78.4244 38.2874 78.4244C38.2874 78.4244 38.2874 78.4244 38.2874 78.4244C38.2874 78.4244 38.2874 78.4244 38.2874 78.4244C38.2874 78.4244 38.2874 78.4244 38.2874 78.4244C38.2874 78.4244 38.2874 78.4244 38.2874 78.4244C38.2874 78.4244 38.2874 78.4244 38.2874 78.4244C38.2874 78.4244 38.2874 78.4244 38.2874 78.4244C38.2874 78.4244 38.2874 78.4244 38.2874 78.4244C38.2874 78.4244 38.2874 78.4244 38.2874 78.4244C38.2874 78.4244 38.2874 78.4244 38.2874 78.4244C38.2874 78.4244 38.2874 78.4244 38.2874 78.4244C38.2874 78.4244 38.2874 78.4244 38.2874 78.4244C38.2874 78.4244 38.2874 78.4244 38.2874 78.4244C38.2874 78.4244 38.2874 78.4244 38.2874 78.4244C38.2874 78.4244 38.2874 78.4244 38.2874 78.4244C38.2874 78.4244 38.2874 78.4244 38.2874 78.4244C38.2874 78.4244 38.2875 78.4244 38.2875 78.4244C38.2875 78.4244 38.2875 78.4244 38.2875 78.4244C38.2875 78.4244 38.2875 78.4244 38.2875 78.4244C38.2875 78.4244 38.2875 78.4244 38.2875 78.4244C38.2875 78.4244 38.2875 78.4244 38.2875 78.4244C38.2875 78.4244 38.2875 78.4244 38.2875 78.4244C38.2875 78.4244 38.2875 78.4244 38.2875 78.4244C38.2875 78.4244 38.2875 78.4244 38.2875 78.4244C38.2875 78.4244 38.2875 78.4244 38.2875 78.4244C38.2875 78.4244 38.2875 78.4244 38.2875 78.4244C38.2875 78.4244 38.2875 78.4244 38.2875 78.4244C38.2875 78.4244 38.2875 78.4244 38.2875 78.4244C38.2875 78.4244 38.2875 78.4244 38.2875 78.4244C38.2875 78.4244 38.2875 78.4244 38.2875 78.4244C38.2875 78.4244 38.2875 78.4244 38.2875 78.4244C38.2875 78.4244 38.2875 78.4244 38.2875 78.4244C38.2875 78.4244 38.2875 78.4244 38.2875 78.4244C38.2875 78.4244 38.2875 78.4244 38.2875 78.4244C38.2875 78.4244 38.2875 78.4244 38.2875 78.4244C38.2875 78.4244 38.2875 78.4244 38.2875 78.4244C38.2875 78.4244 38.2875 78.4244 38.2875 78.4244C38.2875 78.4244 38.2875 78.4244 38.2875 78.4244C38.2875 78.4244 38.2875 78.4244 38.2875 78.4244C38.2875 78.4244 38.2875 78.4244 38.2875 78.4244C38.2875 78.4244 38.2875 78.4244 38.2875 78.4244C38.2875 78.4244 38.2875 78.4244 38.2875 78.4244C38.2875 78.4244 38.2875 78.4244 38.2875 78.4244C38.2875 78.4244 38.2875 78.4244 38.2875 78.4244C38.2875 78.4244 38.2875 78.4244 38.2875 78.4244C38.2875 78.4244 38.2875 78.4244 38.2875 78.4244C38.2875 78.4244 38.2875 78.4244 38.2875 78.4244C38.2875 78.4244 38.2875 78.4244 38.2875 78.4244C38.2875 78.4244 38.2875 78.4244 38.2875 78.4244C38.2875 78.4244 38.2875 78.4244 38.2875 78.4244C38.2875 78.4244 38.2875 78.4244 38.2875 78.4244C38.2875 78.4244 38.2875 78.4244 38.2875 78.4244C38.2875 78.4244 38.2875 78.4244 38.2875 78.4244C38.2875 78.4244 38.2875 78.4244 38.2875 78.4244C38.2875 78.4244 38.2875 78.4244 38.2875 78.4244C38.2875 78.4244 38.2875 78.4244 38.2875 78.4244C38.2875 78.4244 38.2875 78.4244 38.2875 78.4244C38.2875 78.4244 38.2875 78.4244 38.2875 78.4244C38.2875 78.4244 38.2875 78.4244 38.2875 78.4244C38.2875 78.4244 38.2875 78.4244 38.2875 78.4244C38.2875 78.4244 38.2875 78.4244 38.2875 78.4244C38.2875 78.4244 38.2875 78.4244 38.2875 78.4244C38.2875 78.4244 38.2875 78.4244 38.2875 78.4244C38.2875 78.4244 38.2875 78.4244 38.2875 78.4244C38.2875 78.4244 38.2875 78.4244 38.2875 78.4244C38.2875 78.4244 38.2875 78.4244 38.2875 78.4244C38.2875 78.4244 38.2875 78.4244 38.2875 78.4244C38.2875 78.4244 38.2875 78.4244 38.2875 78.4244C38.2875 78.4244 38.2876 78.4244 38.2876 78.4244C38.2876 78.4244 38.2876 78.4244 38.2876 78.4244C38.2876 78.4244 38.2876 78.4244 38.2876 78.4244C38.2876 78.4244 38.2876 78.4244 38.2876 78.4244C38.2876 78.4244 38.2876 78.4244 38.2876 78.4244C38.2876 78.4244 38.2876 78.4244 38.2876 78.4244C38.2876 78.4244 38.2876 78.4244 38.2876 78.4244C38.2876 78.4244 38.2876 78.4244 38.2876 78.4244C38.2876 78.4244 38.2876 78.4244 38.2876 78.4244C38.2876 78.4244 38.2876 78.4244 38.2876 78.4244C38.2876 78.4244 38.2876 78.4244 38.2876 78.4244C38.2876 78.4244 38.2876 78.4244 38.2876 78.4244C38.2876 78.4244 38.2876 78.4244 38.2876 78.4244C38.2876 78.4244 38.2876 78.4244 38.2876 78.4244C38.2876 78.4244 38.2876 78.4244 38.2876 78.4244C38.2876 78.4244 38.2876 78.4244 38.2876 78.4244C38.2876 78.4244 38.2876 78.4244 38.2876 78.4244C38.2876 78.4244 38.2876 78.4244 38.2876 78.4244C38.2876 78.4244 38.2876 78.4244 38.2876 78.4244C38.2876 78.4244 38.2876 78.4244 38.2876 78.4244C38.2876 78.4244 38.2876 78.4244 38.2876 78.4244C38.2876 78.4244 38.2876 78.4244 38.2876 78.4244C38.2876 78.4244 38.2876 78.4244 38.2876 78.4244C38.2876 78.4244 38.2876 78.4244 38.2876 78.4244C38.2876 78.4244 38.2876 78.4244 38.2876 78.4244C38.2876 78.4244 38.2876 78.4244 38.2876 78.4244C38.2876 78.4244 38.2876 78.4244 38.2876 78.4244C38.2876 78.4244 38.2876 78.4244 38.2876 78.4244C38.2876 78.4244 38.2876 78.4244 38.2876 78.4244C38.2876 78.4244 38.2876 78.4244 38.2876 78.4244C38.2876 78.4244 38.2876 78.4244 38.2876 78.4244C38.2876 78.4244 38.2876 78.4244 38.2876 78.4244C38.2876 78.4244 38.2876 78.4244 38.2876 78.4244C38.2876 78.4244 38.2876 78.4244 38.2876 78.4244C38.2876 78.4244 38.2876 78.4244 38.2876 78.4244C38.2876 78.4244 38.2876 78.4244 38.2876 78.4244C38.2876 78.4244 38.2876 78.4244 38.2876 78.4244C38.2876 78.4244 38.2876 78.4244 38.2876 78.4244C38.2876 78.4244 38.2876 78.4244 38.2876 78.4244C38.2876 78.4244 38.2876 78.4244 38.2876 78.4244C38.2876 78.4244 38.2876 78.4244 38.2876 78.4244C38.2876 78.4244 38.2876 78.4244 38.2876 78.4244C38.2876 78.4244 38.2876 78.4244 38.2876 78.4244C38.2876 78.4244 38.2876 78.4244 38.2876 78.4244C38.2876 78.4244 38.2876 78.4244 38.2876 78.4244C38.2876 78.4244 38.2876 78.4244 38.2876 78.4244C38.2876 78.4244 38.2876 78.4244 38.2876 78.4244C38.2876 78.4244 38.2876 78.4244 38.2876 78.4244C38.2876 78.4244 38.2876 78.4244 38.2876 78.4244C38.2876 78.4244 38.2876 78.4244 38.2876 78.4244C38.2876 78.4244 38.2876 78.4244 38.2876 78.4244C38.2876 78.4244 38.2876 78.4244 38.2876 78.4244C38.2876 78.4244 38.2876 78.4244 38.2877 78.4244C38.2877 78.4244 38.2877 78.4244 38.2877 78.4244C38.2877 78.4244 38.2877 78.4244 38.2877 78.4244C38.2877 78.4244 38.2877 78.4244 38.2877 78.4244C38.2877 78.4244 38.2877 78.4244 38.2877 78.4244C38.2877 78.4244 38.2877 78.4244 38.2877 78.4244C38.2877 78.4244 38.2877 78.4244 38.2877 78.4244C38.2877 78.4244 38.2877 78.4244 38.2877 78.4244C38.2877 78.4244 38.2877 78.4244 38.2877 78.4244C38.2877 78.4244 38.2877 78.4244 38.2877 78.4244C38.2877 78.4244 38.2877 78.4244 38.2877 78.4244C38.2877 78.4244 38.2877 78.4244 38.2877 78.4244C38.2877 78.4244 38.2877 78.4244 38.2877 78.4244C38.2877 78.4244 38.2877 78.4244 38.2877 78.4244C38.2877 78.4244 38.2877 78.4244 38.2877 78.4244C38.2877 78.4244 38.2877 78.4244 38.2877 78.4244C38.2877 78.4244 38.2877 78.4244 38.2877 78.4244C38.2877 78.4244 38.2877 78.4244 38.2877 78.4244C38.2877 78.4244 38.2877 78.4244 38.2877 78.4244C38.2877 78.4244 38.2877 78.4244 38.2877 78.4244C38.2877 78.4244 38.2877 78.4244 38.2877 78.4244C38.2877 78.4244 38.2877 78.4244 38.2877 78.4244C38.2877 78.4244 38.2877 78.4244 38.2877 78.4244C38.2877 78.4244 38.2877 78.4244 38.2877 78.4244C38.2877 78.4244 38.2877 78.4244 38.2877 78.4244C38.2877 78.4244 38.2877 78.4244 38.2877 78.4244C38.2877 78.4244 38.2877 78.4244 38.2877 78.4244C38.2877 78.4244 38.2877 78.4244 38.2877 78.4244C38.2877 78.4244 38.2877 78.4244 38.2877 78.4244C38.2877 78.4244 38.2877 78.4244 38.2877 78.4244C38.2877 78.4244 38.2877 78.4244 38.2877 78.4244C38.2877 78.4244 38.2877 78.4244 38.2877 78.4244C38.2877 78.4244 38.2877 78.4244 38.2877 78.4244C38.2877 78.4244 38.2877 78.4244 38.2877 78.4244C38.2877 78.4244 38.2877 78.4244 38.2877 78.4244C38.2877 78.4244 38.2877 78.4244 38.2877 78.4244C38.2877 78.4244 38.2877 78.4244 38.2877 78.4244C38.2877 78.4244 38.2877 78.4244 38.2877 78.4244C38.2877 78.4244 38.2877 78.4244 38.2877 78.4244C38.2877 78.4244 38.2877 78.4244 38.2877 78.4244C38.2877 78.4244 38.2877 78.4244 38.2877 78.4244C38.2877 78.4244 38.2877 78.4244 38.2877 78.4244C38.2877 78.4244 38.2877 78.4244 38.2877 78.4244C38.2877 78.4244 38.2877 78.4244 38.2877 78.4244C38.2877 78.4244 38.2877 78.4244 38.2877 78.4244C38.2877 78.4244 38.2877 78.4244 38.2877 78.4244C38.2877 78.4244 38.2877 78.4244 38.2877 78.4244C38.2877 78.4244 38.2877 78.4244 38.2877 78.4244C38.2877 78.4244 38.2877 78.4244 38.2877 78.4244C38.2877 78.4244 38.2877 78.4244 38.2877 78.4244C38.2877 78.4244 38.2877 78.4244 38.2877 78.4244C38.2877 78.4244 38.2877 78.4244 38.2877 78.4244C38.2877 78.4244 38.2877 78.4244 38.2877 78.4244C38.2878 78.4244 38.2878 78.4244 38.2878 78.4244C38.2878 78.4244 38.2878 78.4244 38.2878 78.4244C38.2878 78.4244 38.2878 78.4244 38.2878 78.4244C38.2878 78.4244 38.2878 78.4244 38.2878 78.4244C38.2878 78.4244 38.2878 78.4244 38.2878 78.4244C38.2878 78.4244 38.2878 78.4244 38.2878 78.4244C38.2878 78.4244 38.2878 78.4244 38.2878 78.4244C38.2878 78.4244 38.2878 78.4244 38.2878 78.4244C38.2878 78.4244 38.2878 78.4244 38.2878 78.4244C38.2878 78.4244 38.2878 78.4244 38.2878 78.4244C38.2878 78.4244 38.2878 78.4244 38.2878 78.4244C38.2878 78.4244 38.2878 78.4244 38.2878 78.4244C38.2878 78.4244 38.2878 78.4244 38.2878 78.4244C38.2878 78.4244 38.2878 78.4244 38.2878 78.4244C38.2878 78.4244 38.2878 78.4244 38.2878 78.4244C38.2878 78.4244 38.2878 78.4244 38.2878 78.4244C38.2878 78.4244 38.2878 78.4244 38.2878 78.4244C38.2878 78.4244 38.2878 78.4244 38.2878 78.4244C38.2878 78.4244 38.2878 78.4244 38.2878 78.4244C38.2878 78.4244 38.2878 78.4244 38.2878 78.4244C38.2878 78.4244 38.2878 78.4244 38.2878 78.4244C38.2878 78.4244 38.2878 78.4244 38.2878 78.4244C38.2878 78.4244 38.2878 78.4244 38.2878 78.4244C38.2878 78.4244 38.2878 78.4244 38.2878 78.4244C38.2878 78.4244 38.2878 78.4244 38.2878 78.4244C38.2878 78.4244 38.2878 78.4244 38.2878 78.4244C38.2878 78.4244 38.2878 78.4244 38.2878 78.4244C38.2878 78.4244 38.2878 78.4244 38.2878 78.4244C38.2878 78.4244 38.2878 78.4244 38.2878 78.4244C38.2878 78.4244 38.2878 78.4244 38.2878 78.4244C38.2878 78.4244 38.2878 78.4244 38.2878 78.4244C38.2878 78.4244 38.2878 78.4244 38.2878 78.4244C38.2878 78.4244 38.2878 78.4244 38.2878 78.4244C38.2878 78.4244 38.2878 78.4244 38.2878 78.4244C38.2878 78.4244 38.2878 78.4244 38.2878 78.4244C38.2878 78.4244 38.2878 78.4244 38.2878 78.4244C38.2878 78.4244 38.2878 78.4244 38.2878 78.4244C38.2878 78.4244 38.2878 78.4244 38.2878 78.4244C38.2878 78.4244 38.2878 78.4244 38.2878 78.4244C38.2878 78.4244 38.2878 78.4244 38.2878 78.4244C38.2878 78.4244 38.2878 78.4244 38.2878 78.4244C38.2878 78.4244 38.2878 78.4244 38.2878 78.4244C38.2878 78.4244 38.2878 78.4244 38.2878 78.4244C38.2878 78.4244 38.2878 78.4244 38.2878 78.4244C38.2878 78.4244 38.2878 78.4244 38.2878 78.4244C38.2878 78.4244 38.2878 78.4244 38.2878 78.4244C38.2878 78.4244 38.2878 78.4244 38.2878 78.4244C38.2878 78.4244 38.2878 78.4244 38.2878 78.4244C38.2878 78.4244 38.2878 78.4244 38.2878 78.4244C38.2878 78.4244 38.2878 78.4244 38.2878 78.4244V76.4244ZM76.0001 38.7121C76.0001 59.54 59.1158 76.4244 38.2878 76.4244V78.4244C60.2203 78.4244 78.0001 60.6446 78.0001 38.7121H76.0001ZM38.2878 0.999756C59.1158 0.999756 76.0001 17.8841 76.0001 38.7121H78.0001C78.0001 16.7796 60.2203 -1.00024 38.2878 -1.00024V0.999756ZM38.2869 0.999756C38.2872 0.999756 38.2875 0.999756 38.2878 0.999756V-1.00024C38.2875 -1.00024 38.2872 -1.00024 38.2868 -1.00024L38.2869 0.999756ZM37.2869 -0.000244128V77.4244H39.2869V-0.000244128H37.2869Z" fill="#DF991B" mask="url(#path-1-inside-1_2_1043)"/>
</g>
<circle id="Ellipse 23" cx="38.1593" cy="38.712" r="38.1593" fill="white"/>
</g>
<g id="Group 250">
<circle id="Ellipse 21" cx="38.9918" cy="37.5004" r="22.2222" fill="black"/>
<circle id="Ellipse 22" cx="38.9912" cy="37.4994" r="23.5" stroke="black"/>
<path id="Vector" d="M46.152 46.4599H47.4119C49.1116 46.4599 50.4515 45.9904 51.4314 45.0514C52.4112 44.1124 53.3911 42.4794 54.371 40.1319C54.511 39.8257 54.631 39.6828 54.7909 39.6828C54.8309 39.6828 54.8709 39.6828 54.9109 39.6828C54.9509 39.6828 54.9709 39.6828 54.9909 39.6828L53.4711 47.2764C52.6112 47.0111 50.9114 46.8682 48.3717 46.8682H37.2131V46.7049C37.2131 46.562 37.3531 46.4803 37.6531 46.3987C37.953 46.3374 38.293 46.2558 38.653 46.1946C39.0329 46.1129 39.3529 45.868 39.6528 45.4597C39.9528 45.0514 40.0928 44.4799 40.0928 43.7246V30.395C40.0928 29.7826 39.9528 29.3131 39.6528 28.9865C39.3529 28.6599 39.0329 28.4558 38.673 28.3945C38.313 28.3333 37.993 28.2516 37.6931 28.1904C37.3931 28.1087 37.2531 28.0067 37.2531 27.8842V27.7209H46.632V27.8842C46.632 28.0271 46.472 28.1291 46.172 28.1904C45.8721 28.272 45.5321 28.3333 45.1721 28.3945C44.8122 28.4558 44.4722 28.6599 44.1723 29.0069C43.8723 29.3539 43.7123 29.8234 43.7123 30.4154C43.7123 31.681 43.7123 33.9672 43.7123 37.2741C43.7123 40.581 43.7123 42.8468 43.7123 44.1329C43.7123 44.8881 43.9123 45.4801 44.2923 45.868C44.6722 46.2762 45.3121 46.4599 46.172 46.4599H46.152Z" fill="white"/>
<path id="Subtract_2" fill-rule="evenodd" clip-rule="evenodd" d="M33.6579 46.2446C32.2273 46.0696 31.1985 45.5676 30.5813 44.7288C29.7982 43.6647 29.3966 42.1186 29.3966 40.0705V31.6977C29.3966 30.9146 29.5171 30.252 29.738 29.6697C29.8383 29.2882 30.0391 28.9669 30.3202 28.7461C30.6013 28.5252 30.9025 28.3846 31.2037 28.3445C31.5049 28.3043 31.7659 28.2441 32.0069 28.1839C32.2277 28.1035 32.3482 28.0232 32.3482 27.8827V27.722H22.9915V27.8827C22.9915 28.0031 23.1521 28.1035 23.4332 28.1839C23.5043 28.1991 23.5793 28.2156 23.6572 28.2328C23.8871 28.2835 24.142 28.3397 24.397 28.3846C24.7383 28.4449 25.0797 28.6457 25.3608 28.9669C25.6619 29.2882 25.8025 29.75 25.8025 30.3524V39.8698C25.8025 44.4565 28.4273 46.8044 33.6579 46.8947V46.2446Z" fill="white"/>
</g>
</g>
</svg>
